<svg width="623" height="212" viewBox="0 0 623 212" fill="none" xmlns="http://www.w3.org/2000/svg">
<path d="M154.214 163.928C148.855 173.21 138.951 178.928 128.233 178.928L78.3746 178.929C67.6568 178.928 57.7528 173.21 52.3938 163.929L27.4648 120.749C22.1058 111.467 22.1062 100.031 27.4651 90.7489L52.3943 47.5702C57.7533 38.2882 67.657 32.5705 78.375 32.5705L128.234 32.5701C138.952 32.5701 148.855 38.2881 154.214 47.5701L157.967 54.0702L136.794 90.7427C133.802 84.1044 128.775 78.3082 121.987 74.3894C104.769 64.4483 82.7513 70.3478 72.8102 87.5663C62.8693 104.785 68.7687 126.802 85.9871 136.743C102.937 146.529 124.536 140.965 134.69 124.365L135.164 123.566L166.627 69.0702L179.143 90.7492C184.502 100.031 184.503 111.467 179.144 120.749L154.214 163.928Z" fill="#F84238"/>
<path d="M222.872 141.69V73.1818H249.394C254.157 73.1818 258.137 73.9321 261.334 75.4328C264.532 76.9334 266.946 79.0213 268.577 81.6964C270.208 84.3062 271.023 87.3075 271.023 90.7003C271.023 94.1583 270.273 97.0618 268.773 99.4106C267.272 101.759 265.282 103.554 262.803 104.793C260.388 106.033 257.779 106.816 254.973 107.142L256.441 106.066C259.508 106.131 262.248 106.947 264.662 108.512C267.141 110.013 269.099 112.036 270.534 114.58C271.97 117.125 272.687 119.93 272.687 122.997C272.687 126.52 271.806 129.717 270.045 132.588C268.348 135.394 265.836 137.612 262.509 139.243C259.181 140.874 255.104 141.69 250.275 141.69H222.872ZM233.638 132.882H248.905C252.95 132.882 256.082 131.936 258.301 130.044C260.584 128.086 261.726 125.378 261.726 121.92C261.726 118.462 260.552 115.722 258.203 113.699C255.919 111.677 252.722 110.666 248.612 110.666H233.638V132.882ZM233.638 102.445H248.024C251.874 102.445 254.843 101.531 256.93 99.7042C259.018 97.8773 260.062 95.3654 260.062 92.1683C260.062 89.0365 259.051 86.5572 257.028 84.7303C255.006 82.8382 251.939 81.8921 247.829 81.8921H233.638V102.445ZM295.384 142.864C291.6 142.864 288.37 142.212 285.695 140.907C283.086 139.537 281.096 137.743 279.725 135.524C278.42 133.306 277.768 130.892 277.768 128.282C277.768 123.127 279.628 119.147 283.347 116.342C287.066 113.536 291.959 112.134 298.027 112.134C300.767 112.134 303.214 112.362 305.367 112.819C307.52 113.21 309.282 113.634 310.652 114.091V111.84C310.652 108.056 309.608 105.25 307.52 103.423C305.497 101.596 302.79 100.683 299.397 100.683C296.852 100.683 294.601 101.205 292.644 102.249C290.687 103.293 289.447 105.12 288.925 107.729H278.551C278.942 104.206 280.117 101.303 282.074 99.0191C284.097 96.6703 286.609 94.9087 289.61 93.7342C292.611 92.5598 295.874 91.9726 299.397 91.9726C306.444 91.9726 311.859 93.7342 315.643 97.2575C319.493 100.781 321.417 105.642 321.417 111.84V124.563C321.417 127.042 321.548 128.836 321.809 129.946C322.135 131.055 322.625 131.773 323.277 132.099C323.995 132.36 324.941 132.49 326.115 132.49H326.605V141.69H324.256C320.993 141.69 318.253 141.201 316.035 140.222C313.882 139.243 312.381 137.286 311.533 134.35C309.967 136.764 307.846 138.786 305.171 140.418C302.496 142.049 299.234 142.864 295.384 142.864ZM297.537 134.448C300.017 134.448 302.137 133.86 303.899 132.686C305.661 131.446 307.063 129.848 308.107 127.89C309.216 125.868 309.902 123.715 310.163 121.431C308.727 121.04 307.031 120.648 305.073 120.257C303.116 119.865 301.126 119.669 299.103 119.669C295.645 119.669 293.036 120.387 291.274 121.823C289.512 123.258 288.631 125.15 288.631 127.499C288.631 129.522 289.414 131.185 290.98 132.49C292.546 133.795 294.732 134.448 297.537 134.448ZM333.62 141.69V93.147H344.386V100.879C346.017 98.1383 348.236 95.9852 351.041 94.4193C353.847 92.7882 357.044 91.9726 360.632 91.9726C366.57 91.9726 371.202 93.8321 374.53 97.5511C377.857 101.205 379.521 106.653 379.521 113.895V141.69H368.755V114.972C368.755 110.405 367.809 106.979 365.917 104.696C364.09 102.347 361.285 101.172 357.5 101.172C353.716 101.172 350.584 102.51 348.105 105.185C345.626 107.86 344.386 111.677 344.386 116.636V141.69H333.62ZM410.97 142.864C406.337 142.864 402.194 141.755 398.54 139.537C394.952 137.318 392.114 134.285 390.026 130.435C388.003 126.52 386.992 122.149 386.992 117.321C386.992 112.427 388.003 108.088 390.026 104.304C392.114 100.455 394.952 97.4532 398.54 95.3001C402.194 93.0818 406.37 91.9726 411.067 91.9726C414.852 91.9726 418.179 92.7229 421.05 94.2236C423.921 95.7242 426.172 97.7795 427.803 100.389V71.2244H438.569V141.69H427.803V134.252C426.302 136.47 424.182 138.46 421.442 140.222C418.701 141.984 415.211 142.864 410.97 142.864ZM412.927 133.469C415.863 133.469 418.44 132.784 420.659 131.414C422.942 130.044 424.704 128.151 425.944 125.737C427.248 123.323 427.901 120.55 427.901 117.418C427.901 114.221 427.248 111.416 425.944 109.002C424.704 106.588 422.942 104.728 420.659 103.423C418.44 102.053 415.863 101.368 412.927 101.368C410.056 101.368 407.479 102.053 405.195 103.423C402.977 104.728 401.215 106.588 399.91 109.002C398.606 111.416 397.953 114.189 397.953 117.321C397.953 120.518 398.606 123.323 399.91 125.737C401.215 128.151 402.977 130.044 405.195 131.414C407.479 132.784 410.056 133.469 412.927 133.469ZM503.867 142.864C499.169 142.864 495.157 141.984 491.829 140.222C488.567 138.395 485.99 136.014 484.097 133.077C482.271 130.076 481.129 126.879 480.672 123.486H490.753C491.405 126.814 492.873 129.391 495.157 131.218C497.505 132.98 500.442 133.86 503.965 133.86C509.641 133.86 514.078 131.251 517.275 126.031C520.537 120.811 521.973 112.786 521.581 101.955L522.658 105.576C521.679 107.599 520.244 109.524 518.351 111.351C516.459 113.112 514.143 114.548 511.403 115.657C508.728 116.701 505.661 117.223 502.203 117.223C498.158 117.223 494.374 116.309 490.85 114.482C487.327 112.656 484.456 110.078 482.238 106.751C480.02 103.423 478.91 99.5411 478.91 95.1044C478.91 91.0592 479.922 87.3075 481.944 83.8495C483.967 80.3262 486.838 77.488 490.557 75.3349C494.276 73.1166 498.615 72.0074 503.573 72.0074C508.923 72.0074 513.393 72.9534 516.981 74.8456C520.635 76.7377 523.571 79.2823 525.79 82.4793C528.008 85.6111 529.606 89.1344 530.585 93.0492C531.564 96.9639 532.053 100.944 532.053 104.989C532.053 112.558 530.944 119.18 528.726 124.856C526.572 130.533 523.375 134.97 519.134 138.167C514.959 141.298 509.87 142.864 503.867 142.864ZM504.356 108.023C507.488 108.023 510.196 107.468 512.479 106.359C514.828 105.185 516.622 103.619 517.862 101.662C519.167 99.639 519.82 97.3228 519.82 94.7129C519.82 92.0378 519.167 89.689 517.862 87.6664C516.622 85.6438 514.828 84.0779 512.479 82.9687C510.131 81.8595 507.39 81.3049 504.258 81.3049C501.257 81.3049 498.647 81.8595 496.429 82.9687C494.211 84.0779 492.482 85.6438 491.242 87.6664C490.002 89.6237 489.382 91.9726 489.382 94.7129C489.382 97.4532 490.002 99.8347 491.242 101.857C492.547 103.815 494.308 105.348 496.527 106.457C498.745 107.501 501.355 108.023 504.356 108.023ZM540.997 141.69V128.38H554.895V141.69H540.997ZM590.679 142.864C584.807 142.864 579.815 141.429 575.705 138.558C571.594 135.622 568.463 131.512 566.309 126.227C564.156 120.876 563.08 114.613 563.08 107.436C563.08 100.259 564.156 94.0278 566.309 88.7429C568.463 83.3928 571.594 79.2823 575.705 76.4115C579.815 73.4754 584.807 72.0074 590.679 72.0074C596.616 72.0074 601.607 73.4754 605.653 76.4115C609.763 79.2823 612.895 83.3928 615.048 88.7429C617.201 94.0278 618.278 100.259 618.278 107.436C618.278 114.613 617.201 120.876 615.048 126.227C612.895 131.512 609.763 135.622 605.653 138.558C601.607 141.429 596.616 142.864 590.679 142.864ZM590.679 133.273C596.486 133.273 600.727 131.055 603.402 126.618C606.142 122.181 607.512 115.787 607.512 107.436C607.512 99.1496 606.142 92.7882 603.402 88.3515C600.727 83.9147 596.486 81.6964 590.679 81.6964C584.937 81.6964 580.696 83.9147 577.956 88.3515C575.215 92.7882 573.845 99.1496 573.845 107.436C573.845 115.787 575.215 122.181 577.956 126.618C580.696 131.055 584.937 133.273 590.679 133.273Z" fill="#181818"/>
</svg>
