<svg width="160" height="147" viewBox="0 0 160 147" fill="none" xmlns="http://www.w3.org/2000/svg">
<path d="M130.769 131.357C125.41 140.64 115.506 146.358 104.788 146.358L54.9288 146.358C44.211 146.358 34.3071 140.64 28.9481 131.358L4.01907 88.1794C-1.33992 78.8973 -1.33957 67.4608 4.01941 58.1788L28.9486 15.0001C34.3076 5.71811 44.2113 0.000393282 54.9292 0.000393399L104.788 9.14511e-06C115.506 9.26199e-06 125.41 5.71798 130.769 15L134.521 21.5001L113.349 58.1726C110.356 51.5344 105.329 45.7381 98.5414 41.8193C81.3229 31.8782 59.3056 37.7777 49.3645 54.9962C39.4236 72.2147 45.323 94.2321 62.5414 104.173C79.4909 113.959 101.091 108.395 111.244 91.7947L111.718 90.9962L143.182 36.5001L155.698 58.1791C161.057 67.4611 161.057 78.8968 155.698 88.1789L130.769 131.357Z" fill="#F84238"/>
</svg>
